<?xml version="1.0" encoding="utf-8"?>
<!-- Generator: Adobe Illustrator 16.0.1, SVG Export Plug-In . SVG Version: 6.00 Build 0)  -->
<!DOCTYPE svg PUBLIC "-//W3C//DTD SVG 1.1//EN" "http://www.w3.org/Graphics/SVG/1.1/DTD/svg11.dtd">
<svg version="1.1" id="Layer_1" xmlns="http://www.w3.org/2000/svg" xmlns:xlink="http://www.w3.org/1999/xlink" x="0px" y="0px"
	 width="194px" height="84.5px" viewBox="0 0 194 84.5" enable-background="new 0 0 194 84.5" xml:space="preserve">
<g>
	<path fill="#FDF6E2" d="M16.427,73.89l2.984,0.809v2.73H9.297l-0.557-2.73l3.136-0.707V56.796l-2.781,0.202l-0.506-3.033
		l6.221-1.114l1.618,1.619V73.89z"/>
	<path fill="#FDF6E2" d="M29.828,54.723c1.618-1.247,3.641-1.872,6.069-1.872c3.505,0,5.816,1.282,6.928,3.845
		c0.371,0.876,0.557,1.956,0.557,3.235v13.908l3.034,0.859v2.73H36.351l-0.606-2.73l3.084-0.707V60.69
		c0-1.517-0.354-2.555-1.062-3.11c-0.708-0.556-1.584-0.833-2.629-0.833c-1.045,0-2.057,0.219-3.034,0.656
		c-0.978,0.438-1.687,0.878-2.124,1.316V73.89l2.934,0.809v2.73H22.85l-0.607-2.73l3.187-0.707V56.796l-2.781,0.202l-0.506-3.033
		c0.438-0.067,0.943-0.16,1.517-0.278s1.146-0.228,1.72-0.328c0.573-0.102,1.128-0.194,1.668-0.28
		c0.539-0.082,0.978-0.158,1.315-0.228L29.828,54.723z"/>
	<path fill="#FDF6E2" d="M60.879,77.682h-3.995L49.248,56.19h-1.973l-0.404-2.882l6.119-0.457l6.422,18.662l6.22-15.323h-2.73
		l-0.355-2.882l6.12-0.457l1.618,1.922L60.879,77.682z"/>
	<path fill="#FDF6E2" d="M139.969,73.89l3.188,0.809v2.73H132.84l-0.606-2.73l3.183-0.707V44.254l-2.88,0.202l-0.505-3.033
		l6.32-1.063l1.617,1.72V73.89z"/>
	<path fill="#FDF6E2" d="M158.025,77.682h-3.996l-7.636-21.492h-1.973l-0.404-2.882l6.118-0.457l6.424,18.662l6.221-15.323h-2.733
		l-0.354-2.882l6.118-0.457l1.619,1.922L158.025,77.682z"/>
	<path fill="#FDF6E2" d="M188.265,59.528c0,1.046-0.177,2.064-0.53,3.059c-0.354,0.996-1.038,1.897-2.049,2.705
		c-2.293,1.821-6.034,2.765-11.226,2.832c0.539,2.666,1.903,4.417,4.097,5.26c0.774,0.305,1.617,0.456,2.526,0.456
		c0.91,0,1.687-0.075,2.326-0.227c0.641-0.154,1.198-0.331,1.67-0.533c0.909-0.438,1.55-0.842,1.92-1.213l1.114,3.539
		c-0.373,0.373-0.996,0.743-1.872,1.114c-3.37,1.381-6.674,1.499-9.912,0.354c-2.931-1.044-4.956-3.084-6.067-6.12
		c-0.573-1.516-0.859-3.295-0.859-5.335c0-2.038,0.304-3.843,0.909-5.411c0.606-1.566,1.415-2.874,2.428-3.918
		c2.023-2.158,4.552-3.238,7.586-3.238c2.226,0,4.097,0.592,5.613,1.771C187.487,55.871,188.265,57.504,188.265,59.528z
		 M183.46,59.931c0-0.942-0.253-1.72-0.758-2.326c-0.507-0.606-1.24-0.909-2.2-0.909s-1.769,0.151-2.428,0.454
		c-0.656,0.304-1.257,0.759-1.796,1.367c-1.179,1.381-1.869,3.337-2.071,5.865c2.459,0,4.299-0.193,5.512-0.581
		s2.14-0.893,2.781-1.518C183.141,61.66,183.46,60.876,183.46,59.931z"/>
</g>
<path fill="none" d="M114.452,52.226c0.472-0.023,0.83-0.491,0.804-1.04l-0.101-1.936c-0.029-0.549-0.438-0.977-0.909-0.951
	c-0.472,0.025-0.83,0.49-0.804,1.042l0.105,1.935C113.572,51.826,113.98,52.251,114.452,52.226z"/>
<path fill="none" d="M102.148,50.525c0.472,0,0.854-0.446,0.854-0.996v-1.937c0-0.552-0.383-0.998-0.854-0.998
	c-0.476,0-0.859,0.446-0.859,0.998v1.937C101.289,50.079,101.672,50.525,102.148,50.525z"/>
<path fill="none" d="M84.926,48.56c-0.472-0.025-0.88,0.4-0.91,0.95l-0.101,1.935c-0.029,0.55,0.333,1.017,0.804,1.04
	c0.472,0.027,0.88-0.4,0.91-0.949L85.73,49.6C85.76,49.049,85.397,48.583,84.926,48.56z"/>
<path fill="none" d="M81.022,50.004c-0.472-0.031-0.884,0.388-0.922,0.938l-0.135,1.933c-0.038,0.55,0.312,1.021,0.783,1.055
	c0.472,0.031,0.884-0.386,0.926-0.935l0.135-1.933C81.848,50.512,81.494,50.039,81.022,50.004z"/>
<path fill="none" d="M110.481,51.573c0.476-0.015,0.842-0.476,0.821-1.025l-0.067-1.937c-0.017-0.552-0.417-0.983-0.889-0.966
	c-0.476,0.017-0.842,0.474-0.821,1.024l0.067,1.938C109.609,51.159,110.009,51.59,110.481,51.573z"/>
<path fill="none" d="M106.477,51.051c0.476,0,0.859-0.448,0.859-0.998v-1.938c0-0.551-0.383-0.997-0.859-0.997
	c-0.472,0-0.855,0.446-0.855,0.997v1.938C105.622,50.603,106.005,51.051,106.477,51.051z"/>
<path fill="none" d="M88.825,47.636c-0.472-0.017-0.872,0.417-0.889,0.969l-0.067,1.935c-0.021,0.552,0.35,1.011,0.821,1.027
	c0.471,0.017,0.872-0.417,0.888-0.967l0.067-1.937C89.667,48.112,89.301,47.653,88.825,47.636z"/>
<path fill="none" d="M92.695,46.981c-0.476,0-0.859,0.446-0.859,0.998v1.938c0,0.552,0.383,0.998,0.859,0.998
	c0.471,0,0.854-0.446,0.854-0.998v-1.938C93.549,47.427,93.166,46.981,92.695,46.981z"/>
<path fill="none" d="M97.023,46.463c-0.472,0-0.855,0.446-0.855,0.998v1.937c0,0.55,0.383,0.998,0.855,0.998
	c0.476,0,0.859-0.448,0.859-0.998v-1.937C97.882,46.91,97.499,46.463,97.023,46.463z"/>
<path fill="none" d="M118.422,53.798c0.472-0.033,0.821-0.505,0.783-1.055l-0.135-1.933c-0.038-0.55-0.45-0.969-0.922-0.935
	c-0.472,0.033-0.825,0.505-0.788,1.055l0.139,1.933C117.538,53.414,117.951,53.833,118.422,53.798z"/>
<path fill="#FDF6E2" d="M99.247,14.567c-0.017,0.421-0.055,0.922-0.135,1.51c-0.101,0.758-0.417,1.488-0.783,2.122
	c0.729-0.111,1.503-0.175,2.32-0.175c0.83,0,1.621,0.065,2.362,0.181c-0.308-0.509-0.581-1.075-0.737-1.652
	c-0.194-0.727-0.27-1.432-0.291-2.034c0.826-0.319,1.377-0.903,1.377-1.572c0-0.794-0.783-1.468-1.874-1.718
	c0.072-0.255,0.143-0.526,0.198-0.801c0.063-0.328,0.08-0.829,0.08-1.366c0.627,0.065-0.147-2.299-0.295-2.603
	c-0.067-0.132-0.53-0.064-0.53-0.396c0-0.168,0.013-0.226,0.135-0.261c0.164-0.057,0.354-0.154,0.328-0.741
	c-0.017-0.379-0.328-0.526-0.673-0.577c-0.345-0.048-0.682,0.139-0.645,0.47c0.042,0.328,0.051,0.572,0.147,0.732
	c0.097,0.162,0.135,0.1,0.059,0.368c-0.072,0.234-0.636-0.071-0.767,0.472c-0.118,0.489-0.198,1.3-0.341,2.386
	c-0.08,0.621,0.282,0.397,0.438,0.604c0.113,0.151,0.097,0.556,0.231,1.011c0.038,0.126,0.105,0.357,0.185,0.625
	c-1.31,0.153-2.307,0.899-2.307,1.794C97.731,13.651,98.346,14.261,99.247,14.567z"/>
<path fill="#FDF6E2" d="M95.318,23.625v5.72c0.758-0.223,1.587-0.399,2.476-0.518c0-1.514,0-3.097,0-3.805
	c0-1.564,0.329-2.834,0.732-2.834c0.4,0,0.729,1.27,0.729,2.834c0,0.568,0,2.131,0,3.67c0.371-0.02,0.75-0.031,1.133-0.031
	c0.362,0,0.716,0.01,1.07,0.029c0-1.474,0-2.981,0-3.668c0-1.564,0.324-2.834,0.728-2.834c0.404,0,0.733,1.27,0.733,2.834
	c0,0.583,0,2.217,0,3.796c1.125,0.146,2.16,0.386,3.07,0.697v-5.938c1.103-0.566,1.777-1.306,1.777-2.118
	c0-1.776-3.205-3.217-7.158-3.217c-3.954,0-7.159,1.44-7.159,3.217C93.448,22.295,94.16,23.051,95.318,23.625z"/>
<path fill="#FDF6E2" d="M99.861,57.836c-15.605,0-28.254,2.743-28.254,6.127c0,0.981,1.074,1.907,2.964,2.729v10.575h1.348
	c0,0,0-7.687,0-8.854c0-1.564,0.459-2.832,1.023-2.832c0.564,0,1.019,1.268,1.019,2.832c0,0.856,0,8.854,0,8.854h1.895
	c0,0,0-9.4,0-10.451c0-1.564,0.459-2.831,1.023-2.831c0.56,0,1.019,1.267,1.019,2.831c0,0.807,0,10.451,0,10.451h1.895
	c0,0,0-10.302,0-11.293c0-1.562,0.455-2.83,1.019-2.83c0.564,0,1.023,1.268,1.023,2.83c0,0.776,0,11.293,0,11.293h1.891
	c0,0,0-11.4,0-12.484c0-1.564,0.459-2.832,1.023-2.832c0.564,0,1.019,1.268,1.019,2.832c0,0.856,0,12.484,0,12.484h1.895
	c0,0,0-11.752,0-12.792c0-1.564,0.459-2.832,1.023-2.832c0.564,0,1.019,1.268,1.019,2.832c0,0.829,0,12.792,0,12.792h2.291
	c0,0,0-12.065,0-13.123c0-1.562,0.455-2.829,1.019-2.829c0.564,0,1.023,1.268,1.023,2.829c0,0.854,0,13.123,0,13.123h3.078
	c0,0,0-11.981,0-13.123c0-1.562,0.459-2.829,1.019-2.829c0.564,0,1.023,1.268,1.023,2.829c0,0.931,0,13.123,0,13.123h2.291
	c0,0,0-11.701,0-12.881c0-1.563,0.455-2.831,1.019-2.831c0.564,0,1.019,1.268,1.019,2.831c0,0.969,0,12.881,0,12.881h1.895
	c0,0,0-11.268,0-12.346c0-1.564,0.459-2.832,1.023-2.832c0.56,0,1.019,1.268,1.019,2.832c0,0.896,0,12.346,0,12.346h1.895
	c0,0,0-10.546,0-11.687c0-1.564,0.455-2.832,1.019-2.832c0.564,0,1.023,1.268,1.023,2.832c0,1.237,0,1.038,0,11.687h1.895
	c0,0,0-9.737,0-10.773c0-1.563,0.455-2.831,1.019-2.831c0.564,0,1.023,1.268,1.023,2.831c0,0.889,0,10.773,0,10.773h1.891
	c0,0,0-8.832,0-9.851c0-1.564,0.459-2.832,1.023-2.832c0.564,0,1.019,1.268,1.019,2.832c0,0.893,0,9.851,0,9.851h1.128V67.012
	c2.387-0.899,3.756-1.939,3.756-3.049C128.116,60.58,115.467,57.836,99.861,57.836z"/>
<path fill="#FDF6E2" d="M122.726,56.942c-1.276-13.723-10.965-24.393-22.743-24.393c-11.735,0-21.399,10.601-22.726,24.256
	c4.211-2.074,12.746-3.493,22.595-3.493C109.921,53.312,118.621,54.794,122.726,56.942z M118.149,49.876
	c0.472-0.034,0.884,0.385,0.922,0.935l0.135,1.933c0.038,0.55-0.312,1.021-0.783,1.055c-0.471,0.034-0.884-0.385-0.922-0.935
	l-0.139-1.933C117.324,50.381,117.677,49.91,118.149,49.876z M114.246,48.299c0.471-0.025,0.88,0.402,0.909,0.951l0.101,1.936
	c0.025,0.549-0.333,1.017-0.804,1.04c-0.472,0.025-0.88-0.4-0.905-0.95l-0.105-1.935C113.416,48.79,113.774,48.325,114.246,48.299z
	 M110.346,47.645c0.472-0.018,0.872,0.414,0.889,0.966l0.067,1.937c0.021,0.55-0.345,1.011-0.821,1.025
	c-0.472,0.018-0.872-0.414-0.888-0.966l-0.067-1.938C109.504,48.119,109.871,47.662,110.346,47.645z M105.622,48.116
	c0-0.551,0.383-0.997,0.855-0.997c0.476,0,0.859,0.446,0.859,0.997v1.938c0,0.55-0.383,0.998-0.859,0.998
	c-0.472,0-0.855-0.448-0.855-0.998V48.116z M101.289,47.592c0-0.552,0.383-0.998,0.859-0.998c0.472,0,0.854,0.446,0.854,0.998v1.937
	c0,0.55-0.383,0.996-0.854,0.996c-0.476,0-0.859-0.446-0.859-0.996V47.592z M81.675,52.995c-0.042,0.549-0.455,0.966-0.926,0.935
	c-0.472-0.034-0.821-0.505-0.783-1.055l0.135-1.933c0.038-0.55,0.451-0.969,0.922-0.938c0.472,0.034,0.825,0.508,0.787,1.058
	L81.675,52.995z M85.629,51.536c-0.029,0.549-0.438,0.977-0.91,0.949c-0.471-0.023-0.833-0.49-0.804-1.04l0.101-1.935
	c0.03-0.55,0.438-0.976,0.91-0.95c0.472,0.023,0.834,0.489,0.804,1.04L85.629,51.536z M89.579,50.6
	c-0.017,0.55-0.417,0.983-0.888,0.967c-0.472-0.017-0.842-0.476-0.821-1.027l0.067-1.935c0.017-0.552,0.417-0.985,0.889-0.969
	c0.476,0.017,0.842,0.476,0.821,1.027L89.579,50.6z M93.549,49.917c0,0.552-0.383,0.998-0.854,0.998
	c-0.476,0-0.859-0.446-0.859-0.998v-1.938c0-0.552,0.383-0.998,0.859-0.998c0.471,0,0.854,0.446,0.854,0.998V49.917z M97.882,49.398
	c0,0.55-0.383,0.998-0.859,0.998c-0.472,0-0.855-0.448-0.855-0.998v-1.937c0-0.552,0.383-0.998,0.855-0.998
	c0.476,0,0.859,0.446,0.859,0.998V49.398z"/>
<path fill="#FDF6E2" d="M100.004,32.25c3.221,0,6.287,0.803,9.066,2.245c0.375-0.453,0.581-0.943,0.581-1.455
	c0-2.291-4.131-4.147-9.234-4.147c-5.099,0-9.23,1.856-9.23,4.147c0,0.4,0.126,0.787,0.362,1.153
	C94.168,32.945,97.019,32.25,100.004,32.25z"/>
<path fill="#FDF6E2" d="M99.562,57.454c11.129,0,20.75,1.396,25.357,3.423c0.088-0.217,0.13-0.436,0.13-0.656
	c0-3.548-11.365-6.422-25.387-6.422s-25.391,2.874-25.391,6.422c0,0.195,0.042,0.39,0.109,0.583
	C79.052,58.816,88.572,57.454,99.562,57.454z"/>
<polygon fill="#FDF6E2" points="10.336,38.178 3.205,39.076 8.445,43.996 7.098,51.057 13.393,47.589 19.692,51.057 18.341,43.996 
	23.587,39.076 16.454,38.178 13.393,31.671 "/>
</svg>
